<?xml version="1.0" encoding="utf-8" standalone="no"?>
<!DOCTYPE svg PUBLIC "-//W3C//DTD SVG 1.1//EN"
  "http://www.w3.org/Graphics/SVG/1.1/DTD/svg11.dtd">
<!-- Created with matplotlib (http://matplotlib.org/) -->
<svg height="209pt" version="1.1" viewBox="0 0 336 209" width="336pt" xmlns="http://www.w3.org/2000/svg" xmlns:xlink="http://www.w3.org/1999/xlink">
 <defs>
  <style type="text/css">
*{stroke-linecap:butt;stroke-linejoin:round;}
  </style>
 </defs>
 <g id="figure_1">
  <g id="patch_1">
   <path d="
M0 209.377
L336.215 209.377
L336.215 0
L0 0
z
" style="fill:#3f3f3f;"/>
  </g>
  <g id="axes_1">
   <g id="patch_2">
    <path d="
M42.2523 181.459
L321.252 181.459
L321.252 14.059
L42.2523 14.059
z
" style="fill:#504040;"/>
   </g>
   <g id="matplotlib.axis_1">
    <g id="xtick_1">
     <g id="line2d_1">
      <path clip-path="url(#p215a35d5cb)" d="
M42.2523 181.459
L42.2523 14.059" style="fill:none;stroke:#808080;stroke-linecap:round;"/>
     </g>
     <g id="line2d_2">
      <defs>
       <path d="
M0 0
L0 0" id="m4380da9e33" style="stroke:#d9d9d9;"/>
      </defs>
      <g>
       <use style="fill:#d9d9d9;stroke:#d9d9d9;" x="42.25234375" xlink:href="#m4380da9e33" y="181.458984375"/>
      </g>
     </g>
     <g id="line2d_3">
      <g>
       <use style="fill:#d9d9d9;stroke:#d9d9d9;" x="42.25234375" xlink:href="#m4380da9e33" y="14.058984375"/>
      </g>
     </g>
     <g id="text_1">
      <!-- −20 -->
      <defs>
       <path d="
M4.15625 35.2969
Q4.15625 48 6.76562 55.7344
Q9.375 63.4844 14.5156 67.6719
Q19.6719 71.875 27.4844 71.875
Q33.25 71.875 37.5938 69.5469
Q41.9375 67.2344 44.7656 62.8594
Q47.6094 58.5 49.2188 52.2188
Q50.8281 45.9531 50.8281 35.2969
Q50.8281 22.7031 48.2344 14.9688
Q45.6562 7.23438 40.5 3
Q35.3594 -1.21875 27.4844 -1.21875
Q17.1406 -1.21875 11.2344 6.20312
Q4.15625 15.1406 4.15625 35.2969
M13.1875 35.2969
Q13.1875 17.6719 17.3125 11.8281
Q21.4375 6 27.4844 6
Q33.5469 6 37.6719 11.8594
Q41.7969 17.7188 41.7969 35.2969
Q41.7969 52.9844 37.6719 58.7812
Q33.5469 64.5938 27.3906 64.5938
Q21.3438 64.5938 17.7188 59.4688
Q13.1875 52.9375 13.1875 35.2969" id="ArialMT-30"/>
       <path d="
M52.8281 31.2031
L5.5625 31.2031
L5.5625 39.4062
L52.8281 39.4062
z
" id="ArialMT-2212"/>
       <path d="
M50.3438 8.45312
L50.3438 0
L3.03125 0
Q2.9375 3.17188 4.04688 6.10938
Q5.85938 10.9375 9.82812 15.625
Q13.8125 20.3125 21.3438 26.4688
Q33.0156 36.0312 37.1094 41.625
Q41.2188 47.2188 41.2188 52.2031
Q41.2188 57.4219 37.4688 61
Q33.7344 64.5938 27.7344 64.5938
Q21.3906 64.5938 17.5781 60.7812
Q13.7656 56.9844 13.7188 50.25
L4.6875 51.1719
Q5.60938 61.2812 11.6562 66.5781
Q17.7188 71.875 27.9375 71.875
Q38.2344 71.875 44.2344 66.1562
Q50.25 60.4531 50.25 52
Q50.25 47.7031 48.4844 43.5469
Q46.7344 39.4062 42.6562 34.8125
Q38.5781 30.2188 29.1094 22.2188
Q21.1875 15.5781 18.9375 13.2031
Q16.7031 10.8438 15.2344 8.45312
z
" id="ArialMT-32"/>
      </defs>
      <g style="fill:#d9d9d9;" transform="translate(30.30625 199.195703125)scale(0.15 -0.15)">
       <use xlink:href="#ArialMT-2212"/>
       <use x="58.3984375" xlink:href="#ArialMT-32"/>
       <use x="114.013671875" xlink:href="#ArialMT-30"/>
      </g>
     </g>
    </g>
    <g id="xtick_2">
     <g id="line2d_4">
      <path clip-path="url(#p215a35d5cb)" d="
M77.1273 181.459
L77.1273 14.059" style="fill:none;stroke:#808080;stroke-linecap:round;"/>
     </g>
     <g id="line2d_5">
      <g>
       <use style="fill:#d9d9d9;stroke:#d9d9d9;" x="77.12734375" xlink:href="#m4380da9e33" y="181.458984375"/>
      </g>
     </g>
     <g id="line2d_6">
      <g>
       <use style="fill:#d9d9d9;stroke:#d9d9d9;" x="77.12734375" xlink:href="#m4380da9e33" y="14.058984375"/>
      </g>
     </g>
     <g id="text_2">
      <!-- −15 -->
      <defs>
       <path d="
M37.25 0
L28.4688 0
L28.4688 56
Q25.2969 52.9844 20.1406 49.9531
Q14.9844 46.9219 10.8906 45.4062
L10.8906 53.9062
Q18.2656 57.375 23.7812 62.2969
Q29.2969 67.2344 31.5938 71.875
L37.25 71.875
z
" id="ArialMT-31"/>
       <path d="
M4.15625 18.75
L13.375 19.5312
Q14.4062 12.7969 18.1406 9.39062
Q21.875 6 27.1562 6
Q33.5 6 37.8906 10.7812
Q42.2812 15.5781 42.2812 23.4844
Q42.2812 31 38.0625 35.3438
Q33.8438 39.7031 27 39.7031
Q22.75 39.7031 19.3281 37.7656
Q15.9219 35.8438 13.9688 32.7656
L5.71875 33.8438
L12.6406 70.6094
L48.25 70.6094
L48.25 62.2031
L19.6719 62.2031
L15.8281 42.9688
Q22.2656 47.4688 29.3438 47.4688
Q38.7188 47.4688 45.1562 40.9688
Q51.6094 34.4688 51.6094 24.2656
Q51.6094 14.5469 45.9531 7.46875
Q39.0625 -1.21875 27.1562 -1.21875
Q17.3906 -1.21875 11.2031 4.25
Q5.03125 9.71875 4.15625 18.75" id="ArialMT-35"/>
      </defs>
      <g style="fill:#d9d9d9;" transform="translate(65.12265625 199.195703125)scale(0.15 -0.15)">
       <use xlink:href="#ArialMT-2212"/>
       <use x="58.3984375" xlink:href="#ArialMT-31"/>
       <use x="114.013671875" xlink:href="#ArialMT-35"/>
      </g>
     </g>
    </g>
    <g id="xtick_3">
     <g id="line2d_7">
      <path clip-path="url(#p215a35d5cb)" d="
M112.002 181.459
L112.002 14.059" style="fill:none;stroke:#808080;stroke-linecap:round;"/>
     </g>
     <g id="line2d_8">
      <g>
       <use style="fill:#d9d9d9;stroke:#d9d9d9;" x="112.00234375" xlink:href="#m4380da9e33" y="181.458984375"/>
      </g>
     </g>
     <g id="line2d_9">
      <g>
       <use style="fill:#d9d9d9;stroke:#d9d9d9;" x="112.00234375" xlink:href="#m4380da9e33" y="14.058984375"/>
      </g>
     </g>
     <g id="text_3">
      <!-- −10 -->
      <g style="fill:#d9d9d9;" transform="translate(100.05625 199.195703125)scale(0.15 -0.15)">
       <use xlink:href="#ArialMT-2212"/>
       <use x="58.3984375" xlink:href="#ArialMT-31"/>
       <use x="114.013671875" xlink:href="#ArialMT-30"/>
      </g>
     </g>
    </g>
    <g id="xtick_4">
     <g id="line2d_10">
      <path clip-path="url(#p215a35d5cb)" d="
M146.877 181.459
L146.877 14.059" style="fill:none;stroke:#808080;stroke-linecap:round;"/>
     </g>
     <g id="line2d_11">
      <g>
       <use style="fill:#d9d9d9;stroke:#d9d9d9;" x="146.87734375" xlink:href="#m4380da9e33" y="181.458984375"/>
      </g>
     </g>
     <g id="line2d_12">
      <g>
       <use style="fill:#d9d9d9;stroke:#d9d9d9;" x="146.87734375" xlink:href="#m4380da9e33" y="14.058984375"/>
      </g>
     </g>
     <g id="text_4">
      <!-- −5 -->
      <g style="fill:#d9d9d9;" transform="translate(139.043359375 199.195703125)scale(0.15 -0.15)">
       <use xlink:href="#ArialMT-2212"/>
       <use x="58.3984375" xlink:href="#ArialMT-35"/>
      </g>
     </g>
    </g>
    <g id="xtick_5">
     <g id="line2d_13">
      <path clip-path="url(#p215a35d5cb)" d="
M181.752 181.459
L181.752 14.059" style="fill:none;stroke:#808080;stroke-linecap:round;"/>
     </g>
     <g id="line2d_14">
      <g>
       <use style="fill:#d9d9d9;stroke:#d9d9d9;" x="181.75234375" xlink:href="#m4380da9e33" y="181.458984375"/>
      </g>
     </g>
     <g id="line2d_15">
      <g>
       <use style="fill:#d9d9d9;stroke:#d9d9d9;" x="181.75234375" xlink:href="#m4380da9e33" y="14.058984375"/>
      </g>
     </g>
     <g id="text_5">
      <!-- 0 -->
      <g style="fill:#d9d9d9;" transform="translate(178.251953125 199.195703125)scale(0.15 -0.15)">
       <use xlink:href="#ArialMT-30"/>
      </g>
     </g>
    </g>
    <g id="xtick_6">
     <g id="line2d_16">
      <path clip-path="url(#p215a35d5cb)" d="
M216.627 181.459
L216.627 14.059" style="fill:none;stroke:#808080;stroke-linecap:round;"/>
     </g>
     <g id="line2d_17">
      <g>
       <use style="fill:#d9d9d9;stroke:#d9d9d9;" x="216.62734375" xlink:href="#m4380da9e33" y="181.458984375"/>
      </g>
     </g>
     <g id="line2d_18">
      <g>
       <use style="fill:#d9d9d9;stroke:#d9d9d9;" x="216.62734375" xlink:href="#m4380da9e33" y="14.058984375"/>
      </g>
     </g>
     <g id="text_6">
      <!-- 5 -->
      <g style="fill:#d9d9d9;" transform="translate(213.068359375 199.195703125)scale(0.15 -0.15)">
       <use xlink:href="#ArialMT-35"/>
      </g>
     </g>
    </g>
    <g id="xtick_7">
     <g id="line2d_19">
      <path clip-path="url(#p215a35d5cb)" d="
M251.502 181.459
L251.502 14.059" style="fill:none;stroke:#808080;stroke-linecap:round;"/>
     </g>
     <g id="line2d_20">
      <g>
       <use style="fill:#d9d9d9;stroke:#d9d9d9;" x="251.50234375" xlink:href="#m4380da9e33" y="181.458984375"/>
      </g>
     </g>
     <g id="line2d_21">
      <g>
       <use style="fill:#d9d9d9;stroke:#d9d9d9;" x="251.50234375" xlink:href="#m4380da9e33" y="14.058984375"/>
      </g>
     </g>
     <g id="text_7">
      <!-- 10 -->
      <g style="fill:#d9d9d9;" transform="translate(244.336328125 199.195703125)scale(0.15 -0.15)">
       <use xlink:href="#ArialMT-31"/>
       <use x="55.615234375" xlink:href="#ArialMT-30"/>
      </g>
     </g>
    </g>
    <g id="xtick_8">
     <g id="line2d_22">
      <path clip-path="url(#p215a35d5cb)" d="
M286.377 181.459
L286.377 14.059" style="fill:none;stroke:#808080;stroke-linecap:round;"/>
     </g>
     <g id="line2d_23">
      <g>
       <use style="fill:#d9d9d9;stroke:#d9d9d9;" x="286.37734375" xlink:href="#m4380da9e33" y="181.458984375"/>
      </g>
     </g>
     <g id="line2d_24">
      <g>
       <use style="fill:#d9d9d9;stroke:#d9d9d9;" x="286.37734375" xlink:href="#m4380da9e33" y="14.058984375"/>
      </g>
     </g>
     <g id="text_8">
      <!-- 15 -->
      <g style="fill:#d9d9d9;" transform="translate(279.152734375 199.195703125)scale(0.15 -0.15)">
       <use xlink:href="#ArialMT-31"/>
       <use x="55.615234375" xlink:href="#ArialMT-35"/>
      </g>
     </g>
    </g>
    <g id="xtick_9">
     <g id="line2d_25">
      <path clip-path="url(#p215a35d5cb)" d="
M321.252 181.459
L321.252 14.059" style="fill:none;stroke:#808080;stroke-linecap:round;"/>
     </g>
     <g id="line2d_26">
      <g>
       <use style="fill:#d9d9d9;stroke:#d9d9d9;" x="321.25234375" xlink:href="#m4380da9e33" y="181.458984375"/>
      </g>
     </g>
     <g id="line2d_27">
      <g>
       <use style="fill:#d9d9d9;stroke:#d9d9d9;" x="321.25234375" xlink:href="#m4380da9e33" y="14.058984375"/>
      </g>
     </g>
     <g id="text_9">
      <!-- 20 -->
      <g style="fill:#d9d9d9;" transform="translate(313.48984375 199.195703125)scale(0.15 -0.15)">
       <use xlink:href="#ArialMT-32"/>
       <use x="55.615234375" xlink:href="#ArialMT-30"/>
      </g>
     </g>
    </g>
   </g>
   <g id="matplotlib.axis_2">
    <g id="ytick_1">
     <g id="line2d_28">
      <path clip-path="url(#p215a35d5cb)" d="
M42.2523 181.459
L321.252 181.459" style="fill:none;stroke:#808080;stroke-linecap:round;"/>
     </g>
     <g id="line2d_29">
      <g>
       <use style="fill:#d9d9d9;stroke:#d9d9d9;" x="42.25234375" xlink:href="#m4380da9e33" y="181.458984375"/>
      </g>
     </g>
     <g id="line2d_30">
      <g>
       <use style="fill:#d9d9d9;stroke:#d9d9d9;" x="321.25234375" xlink:href="#m4380da9e33" y="181.458984375"/>
      </g>
     </g>
     <g id="text_10">
      <!-- −0.4 -->
      <defs>
       <path d="
M9.07812 0
L9.07812 10.0156
L19.0938 10.0156
L19.0938 0
z
" id="ArialMT-2e"/>
       <path d="
M32.3281 0
L32.3281 17.1406
L1.26562 17.1406
L1.26562 25.2031
L33.9375 71.5781
L41.1094 71.5781
L41.1094 25.2031
L50.7812 25.2031
L50.7812 17.1406
L41.1094 17.1406
L41.1094 0
z

M32.3281 25.2031
L32.3281 57.4688
L9.90625 25.2031
z
" id="ArialMT-34"/>
      </defs>
      <g style="fill:#d9d9d9;" transform="translate(7.2 185.33671875)scale(0.15 -0.15)">
       <use xlink:href="#ArialMT-2212"/>
       <use x="58.3984375" xlink:href="#ArialMT-30"/>
       <use x="114.013671875" xlink:href="#ArialMT-2e"/>
       <use x="141.796875" xlink:href="#ArialMT-34"/>
      </g>
     </g>
    </g>
    <g id="ytick_2">
     <g id="line2d_31">
      <path clip-path="url(#p215a35d5cb)" d="
M42.2523 157.545
L321.252 157.545" style="fill:none;stroke:#808080;stroke-linecap:round;"/>
     </g>
     <g id="line2d_32">
      <g>
       <use style="fill:#d9d9d9;stroke:#d9d9d9;" x="42.25234375" xlink:href="#m4380da9e33" y="157.544698661"/>
      </g>
     </g>
     <g id="line2d_33">
      <g>
       <use style="fill:#d9d9d9;stroke:#d9d9d9;" x="321.25234375" xlink:href="#m4380da9e33" y="157.544698661"/>
      </g>
     </g>
     <g id="text_11">
      <!-- −0.2 -->
      <g style="fill:#d9d9d9;" transform="translate(7.265625 161.422433036)scale(0.15 -0.15)">
       <use xlink:href="#ArialMT-2212"/>
       <use x="58.3984375" xlink:href="#ArialMT-30"/>
       <use x="114.013671875" xlink:href="#ArialMT-2e"/>
       <use x="141.796875" xlink:href="#ArialMT-32"/>
      </g>
     </g>
    </g>
    <g id="ytick_3">
     <g id="line2d_34">
      <path clip-path="url(#p215a35d5cb)" d="
M42.2523 133.63
L321.252 133.63" style="fill:none;stroke:#808080;stroke-linecap:round;"/>
     </g>
     <g id="line2d_35">
      <g>
       <use style="fill:#d9d9d9;stroke:#d9d9d9;" x="42.25234375" xlink:href="#m4380da9e33" y="133.630412946"/>
      </g>
     </g>
     <g id="line2d_36">
      <g>
       <use style="fill:#d9d9d9;stroke:#d9d9d9;" x="321.25234375" xlink:href="#m4380da9e33" y="133.630412946"/>
      </g>
     </g>
     <g id="text_12">
      <!-- 0.0 -->
      <g style="fill:#d9d9d9;" transform="translate(15.74296875 137.508147321)scale(0.15 -0.15)">
       <use xlink:href="#ArialMT-30"/>
       <use x="55.615234375" xlink:href="#ArialMT-2e"/>
       <use x="83.3984375" xlink:href="#ArialMT-30"/>
      </g>
     </g>
    </g>
    <g id="ytick_4">
     <g id="line2d_37">
      <path clip-path="url(#p215a35d5cb)" d="
M42.2523 109.716
L321.252 109.716" style="fill:none;stroke:#808080;stroke-linecap:round;"/>
     </g>
     <g id="line2d_38">
      <g>
       <use style="fill:#d9d9d9;stroke:#d9d9d9;" x="42.25234375" xlink:href="#m4380da9e33" y="109.716127232"/>
      </g>
     </g>
     <g id="line2d_39">
      <g>
       <use style="fill:#d9d9d9;stroke:#d9d9d9;" x="321.25234375" xlink:href="#m4380da9e33" y="109.716127232"/>
      </g>
     </g>
     <g id="text_13">
      <!-- 0.2 -->
      <g style="fill:#d9d9d9;" transform="translate(15.815625 113.593861607)scale(0.15 -0.15)">
       <use xlink:href="#ArialMT-30"/>
       <use x="55.615234375" xlink:href="#ArialMT-2e"/>
       <use x="83.3984375" xlink:href="#ArialMT-32"/>
      </g>
     </g>
    </g>
    <g id="ytick_5">
     <g id="line2d_40">
      <path clip-path="url(#p215a35d5cb)" d="
M42.2523 85.8018
L321.252 85.8018" style="fill:none;stroke:#808080;stroke-linecap:round;"/>
     </g>
     <g id="line2d_41">
      <g>
       <use style="fill:#d9d9d9;stroke:#d9d9d9;" x="42.25234375" xlink:href="#m4380da9e33" y="85.8018415179"/>
      </g>
     </g>
     <g id="line2d_42">
      <g>
       <use style="fill:#d9d9d9;stroke:#d9d9d9;" x="321.25234375" xlink:href="#m4380da9e33" y="85.8018415179"/>
      </g>
     </g>
     <g id="text_14">
      <!-- 0.4 -->
      <g style="fill:#d9d9d9;" transform="translate(15.75 89.6795758929)scale(0.15 -0.15)">
       <use xlink:href="#ArialMT-30"/>
       <use x="55.615234375" xlink:href="#ArialMT-2e"/>
       <use x="83.3984375" xlink:href="#ArialMT-34"/>
      </g>
     </g>
    </g>
    <g id="ytick_6">
     <g id="line2d_43">
      <path clip-path="url(#p215a35d5cb)" d="
M42.2523 61.8876
L321.252 61.8876" style="fill:none;stroke:#808080;stroke-linecap:round;"/>
     </g>
     <g id="line2d_44">
      <g>
       <use style="fill:#d9d9d9;stroke:#d9d9d9;" x="42.25234375" xlink:href="#m4380da9e33" y="61.8875558036"/>
      </g>
     </g>
     <g id="line2d_45">
      <g>
       <use style="fill:#d9d9d9;stroke:#d9d9d9;" x="321.25234375" xlink:href="#m4380da9e33" y="61.8875558036"/>
      </g>
     </g>
     <g id="text_15">
      <!-- 0.6 -->
      <defs>
       <path d="
M49.75 54.0469
L41.0156 53.375
Q39.8438 58.5469 37.7031 60.8906
Q34.125 64.6562 28.9062 64.6562
Q24.7031 64.6562 21.5312 62.3125
Q17.3906 59.2812 14.9844 53.4688
Q12.5938 47.6562 12.5 36.9219
Q15.6719 41.75 20.2656 44.0938
Q24.8594 46.4375 29.8906 46.4375
Q38.6719 46.4375 44.8438 39.9688
Q51.0312 33.5 51.0312 23.25
Q51.0312 16.5 48.125 10.7188
Q45.2188 4.9375 40.1406 1.85938
Q35.0625 -1.21875 28.6094 -1.21875
Q17.625 -1.21875 10.6875 6.85938
Q3.76562 14.9375 3.76562 33.5
Q3.76562 54.25 11.4219 63.6719
Q18.1094 71.875 29.4375 71.875
Q37.8906 71.875 43.2812 67.1406
Q48.6875 62.4062 49.75 54.0469
M13.875 23.1875
Q13.875 18.6562 15.7969 14.5
Q17.7188 10.3594 21.1875 8.17188
Q24.6562 6 28.4688 6
Q34.0312 6 38.0312 10.4844
Q42.0469 14.9844 42.0469 22.7031
Q42.0469 30.125 38.0781 34.3906
Q34.125 38.6719 28.125 38.6719
Q22.1719 38.6719 18.0156 34.3906
Q13.875 30.125 13.875 23.1875" id="ArialMT-36"/>
      </defs>
      <g style="fill:#d9d9d9;" transform="translate(15.7125 65.7652901786)scale(0.15 -0.15)">
       <use xlink:href="#ArialMT-30"/>
       <use x="55.615234375" xlink:href="#ArialMT-2e"/>
       <use x="83.3984375" xlink:href="#ArialMT-36"/>
      </g>
     </g>
    </g>
    <g id="ytick_7">
     <g id="line2d_46">
      <path clip-path="url(#p215a35d5cb)" d="
M42.2523 37.9733
L321.252 37.9733" style="fill:none;stroke:#808080;stroke-linecap:round;"/>
     </g>
     <g id="line2d_47">
      <g>
       <use style="fill:#d9d9d9;stroke:#d9d9d9;" x="42.25234375" xlink:href="#m4380da9e33" y="37.9732700893"/>
      </g>
     </g>
     <g id="line2d_48">
      <g>
       <use style="fill:#d9d9d9;stroke:#d9d9d9;" x="321.25234375" xlink:href="#m4380da9e33" y="37.9732700893"/>
      </g>
     </g>
     <g id="text_16">
      <!-- 0.8 -->
      <defs>
       <path d="
M17.6719 38.8125
Q12.2031 40.8281 9.5625 44.5312
Q6.9375 48.25 6.9375 53.4219
Q6.9375 61.2344 12.5469 66.5469
Q18.1719 71.875 27.4844 71.875
Q36.8594 71.875 42.5781 66.4219
Q48.2969 60.9844 48.2969 53.1719
Q48.2969 48.1875 45.6719 44.5
Q43.0625 40.8281 37.75 38.8125
Q44.3438 36.6719 47.7812 31.875
Q51.2188 27.0938 51.2188 20.4531
Q51.2188 11.2812 44.7188 5.03125
Q38.2344 -1.21875 27.6406 -1.21875
Q17.0469 -1.21875 10.5469 5.04688
Q4.04688 11.3281 4.04688 20.7031
Q4.04688 27.6875 7.59375 32.3906
Q11.1406 37.1094 17.6719 38.8125
M15.9219 53.7188
Q15.9219 48.6406 19.1875 45.4062
Q22.4688 42.1875 27.6875 42.1875
Q32.7656 42.1875 36.0156 45.375
Q39.2656 48.5781 39.2656 53.2188
Q39.2656 58.0625 35.9062 61.3594
Q32.5625 64.6562 27.5938 64.6562
Q22.5625 64.6562 19.2344 61.4219
Q15.9219 58.2031 15.9219 53.7188
M13.0938 20.6562
Q13.0938 16.8906 14.875 13.375
Q16.6562 9.85938 20.1719 7.92188
Q23.6875 6 27.7344 6
Q34.0312 6 38.125 10.0469
Q42.2344 14.1094 42.2344 20.3594
Q42.2344 26.7031 38.0156 30.8594
Q33.7969 35.0156 27.4375 35.0156
Q21.2344 35.0156 17.1562 30.9062
Q13.0938 26.8125 13.0938 20.6562" id="ArialMT-38"/>
      </defs>
      <g style="fill:#d9d9d9;" transform="translate(15.684375 41.8510044643)scale(0.15 -0.15)">
       <use xlink:href="#ArialMT-30"/>
       <use x="55.615234375" xlink:href="#ArialMT-2e"/>
       <use x="83.3984375" xlink:href="#ArialMT-38"/>
      </g>
     </g>
    </g>
    <g id="ytick_8">
     <g id="line2d_49">
      <path clip-path="url(#p215a35d5cb)" d="
M42.2523 14.059
L321.252 14.059" style="fill:none;stroke:#808080;stroke-linecap:round;"/>
     </g>
     <g id="line2d_50">
      <g>
       <use style="fill:#d9d9d9;stroke:#d9d9d9;" x="42.25234375" xlink:href="#m4380da9e33" y="14.058984375"/>
      </g>
     </g>
     <g id="line2d_51">
      <g>
       <use style="fill:#d9d9d9;stroke:#d9d9d9;" x="321.25234375" xlink:href="#m4380da9e33" y="14.058984375"/>
      </g>
     </g>
     <g id="text_17">
      <!-- 1.0 -->
      <g style="fill:#d9d9d9;" transform="translate(16.753125 17.93671875)scale(0.15 -0.15)">
       <use xlink:href="#ArialMT-31"/>
       <use x="55.615234375" xlink:href="#ArialMT-2e"/>
       <use x="83.3984375" xlink:href="#ArialMT-30"/>
      </g>
     </g>
    </g>
   </g>
   <g id="line2d_52">
    <path clip-path="url(#p215a35d5cb)" d="
M42.2523 128.172
L45.0705 129.487
L47.8887 131.539
L50.7069 134.023
L53.5251 136.551
L56.3433 138.712
L59.1614 140.136
L61.9796 140.554
L64.7978 139.85
L67.616 138.086
L70.4342 135.496
L73.2523 132.463
L76.0705 129.462
L78.8887 126.986
L81.7069 125.471
L84.5251 125.22
L87.3433 126.348
L90.1614 128.755
L92.9796 132.125
L95.7978 135.966
L98.616 139.679
L101.434 142.644
L104.252 144.32
L107.071 144.336
L109.889 142.562
L112.707 139.146
L115.525 134.513
L118.343 129.32
L121.161 124.37
L123.98 120.502
L126.798 118.459
L129.616 118.77
L132.434 121.647
L135.252 126.92
L138.071 134.023
L140.889 142.038
L143.707 149.787
L146.525 155.965
L149.343 159.308
L152.161 158.759
L154.98 153.622
L157.798 143.678
L160.616 129.248
L163.434 111.193
L166.252 90.8419
L169.071 69.8683
L171.889 50.1117
L174.707 33.3797
L177.525 21.2457
L180.343 14.8707
L183.161 14.8707
L185.98 21.2457
L188.798 33.3797
L191.616 50.1117
L194.434 69.8683
L197.252 90.8419
L200.071 111.193
L202.889 129.248
L205.707 143.678
L208.525 153.622
L211.343 158.759
L214.161 159.308
L216.98 155.965
L219.798 149.787
L222.616 142.038
L225.434 134.023
L228.252 126.92
L231.071 121.647
L233.889 118.77
L236.707 118.459
L239.525 120.502
L242.343 124.37
L245.161 129.32
L247.98 134.513
L250.798 139.146
L253.616 142.562
L256.434 144.336
L259.252 144.32
L262.071 142.644
L264.889 139.679
L267.707 135.966
L270.525 132.125
L273.343 128.755
L276.161 126.348
L278.98 125.22
L281.798 125.471
L284.616 126.986
L287.434 129.462
L290.252 132.463
L293.071 135.496
L295.889 138.086
L298.707 139.85
L301.525 140.554
L304.343 140.136
L307.161 138.712
L309.98 136.551
L312.798 134.023
L315.616 131.539
L318.434 129.487
L321.252 128.172" style="fill:none;stroke:#003fff;stroke-linecap:round;stroke-width:1.75;"/>
   </g>
   <g id="patch_3">
    <path d="
M42.2523 14.059
L321.252 14.059" style="fill:none;"/>
   </g>
   <g id="patch_4">
    <path d="
M321.252 181.459
L321.252 14.059" style="fill:none;"/>
   </g>
   <g id="patch_5">
    <path d="
M42.2523 181.459
L321.252 181.459" style="fill:none;"/>
   </g>
   <g id="patch_6">
    <path d="
M42.2523 181.459
L42.2523 14.059" style="fill:none;"/>
   </g>
  </g>
 </g>
 <defs>
  <clipPath id="p215a35d5cb">
   <rect height="167.4" width="279.0" x="42.25234375" y="14.058984375"/>
  </clipPath>
 </defs>
</svg>
