<?xml version="1.0" encoding="utf-8" standalone="no"?>
<!DOCTYPE svg PUBLIC "-//W3C//DTD SVG 1.1//EN"
  "http://www.w3.org/Graphics/SVG/1.1/DTD/svg11.dtd">
<!-- Created with matplotlib (http://matplotlib.org/) -->
<svg height="348pt" version="1.1" viewBox="0 0 502 348" width="502pt" xmlns="http://www.w3.org/2000/svg" xmlns:xlink="http://www.w3.org/1999/xlink">
 <defs>
  <style type="text/css">
*{stroke-linecap:butt;stroke-linejoin:round;}
  </style>
 </defs>
 <g id="figure_1">
  <g id="patch_1">
   <path d="
M0 348.877
L502.374 348.877
L502.374 0
L0 0
z
" style="fill:#3f3f3f;"/>
  </g>
  <g id="axes_1">
   <g id="patch_2">
    <path d="
M45.2148 320.959
L491.615 320.959
L491.615 14.059
L45.2148 14.059
z
" style="fill:#504040;"/>
   </g>
   <g id="matplotlib.axis_1">
    <g id="xtick_1">
     <g id="line2d_1">
      <path clip-path="url(#pfb770fbfc1)" d="
M45.2148 320.959
L45.2148 14.059" style="fill:none;stroke:#808080;stroke-linecap:round;"/>
     </g>
     <g id="line2d_2">
      <defs>
       <path d="
M0 0
L0 0" id="m4380da9e33" style="stroke:#d9d9d9;"/>
      </defs>
      <g>
       <use style="fill:#d9d9d9;stroke:#d9d9d9;" x="45.21484375" xlink:href="#m4380da9e33" y="320.958984375"/>
      </g>
     </g>
     <g id="line2d_3">
      <g>
       <use style="fill:#d9d9d9;stroke:#d9d9d9;" x="45.21484375" xlink:href="#m4380da9e33" y="14.058984375"/>
      </g>
     </g>
     <g id="text_1">
      <!-- −4 -->
      <defs>
       <path d="
M52.8281 31.2031
L5.5625 31.2031
L5.5625 39.4062
L52.8281 39.4062
z
" id="ArialMT-2212"/>
       <path d="
M32.3281 0
L32.3281 17.1406
L1.26562 17.1406
L1.26562 25.2031
L33.9375 71.5781
L41.1094 71.5781
L41.1094 25.2031
L50.7812 25.2031
L50.7812 17.1406
L41.1094 17.1406
L41.1094 0
z

M32.3281 25.2031
L32.3281 57.4688
L9.90625 25.2031
z
" id="ArialMT-34"/>
      </defs>
      <g style="fill:#d9d9d9;" transform="translate(37.44296875 338.695703125)scale(0.15 -0.15)">
       <use xlink:href="#ArialMT-2212"/>
       <use x="58.3984375" xlink:href="#ArialMT-34"/>
      </g>
     </g>
    </g>
    <g id="xtick_2">
     <g id="line2d_4">
      <path clip-path="url(#pfb770fbfc1)" d="
M94.8148 320.959
L94.8148 14.059" style="fill:none;stroke:#808080;stroke-linecap:round;"/>
     </g>
     <g id="line2d_5">
      <g>
       <use style="fill:#d9d9d9;stroke:#d9d9d9;" x="94.81484375" xlink:href="#m4380da9e33" y="320.958984375"/>
      </g>
     </g>
     <g id="line2d_6">
      <g>
       <use style="fill:#d9d9d9;stroke:#d9d9d9;" x="94.81484375" xlink:href="#m4380da9e33" y="14.058984375"/>
      </g>
     </g>
     <g id="text_2">
      <!-- −3 -->
      <defs>
       <path d="
M4.20312 18.8906
L12.9844 20.0625
Q14.5 12.5938 18.1406 9.29688
Q21.7812 6 27 6
Q33.2031 6 37.4688 10.2969
Q41.75 14.5938 41.75 20.9531
Q41.75 27 37.7969 30.9219
Q33.8438 34.8594 27.7344 34.8594
Q25.25 34.8594 21.5312 33.8906
L22.5156 41.6094
Q23.3906 41.5 23.9219 41.5
Q29.5469 41.5 34.0312 44.4219
Q38.5312 47.3594 38.5312 53.4688
Q38.5312 58.2969 35.25 61.4688
Q31.9844 64.6562 26.8125 64.6562
Q21.6875 64.6562 18.2656 61.4219
Q14.8438 58.2031 13.875 51.7656
L5.07812 53.3281
Q6.6875 62.1562 12.3906 67.0156
Q18.1094 71.875 26.6094 71.875
Q32.4688 71.875 37.3906 69.3594
Q42.3281 66.8438 44.9375 62.5
Q47.5625 58.1562 47.5625 53.2656
Q47.5625 48.6406 45.0625 44.8281
Q42.5781 41.0156 37.7031 38.7656
Q44.0469 37.3125 47.5625 32.6875
Q51.0781 28.0781 51.0781 21.1406
Q51.0781 11.7656 44.2344 5.25
Q37.4062 -1.26562 26.9531 -1.26562
Q17.5312 -1.26562 11.2969 4.34375
Q5.07812 9.96875 4.20312 18.8906" id="ArialMT-33"/>
      </defs>
      <g style="fill:#d9d9d9;" transform="translate(87.020703125 338.695703125)scale(0.15 -0.15)">
       <use xlink:href="#ArialMT-2212"/>
       <use x="58.3984375" xlink:href="#ArialMT-33"/>
      </g>
     </g>
    </g>
    <g id="xtick_3">
     <g id="line2d_7">
      <path clip-path="url(#pfb770fbfc1)" d="
M144.415 320.959
L144.415 14.059" style="fill:none;stroke:#808080;stroke-linecap:round;"/>
     </g>
     <g id="line2d_8">
      <g>
       <use style="fill:#d9d9d9;stroke:#d9d9d9;" x="144.41484375" xlink:href="#m4380da9e33" y="320.958984375"/>
      </g>
     </g>
     <g id="line2d_9">
      <g>
       <use style="fill:#d9d9d9;stroke:#d9d9d9;" x="144.41484375" xlink:href="#m4380da9e33" y="14.058984375"/>
      </g>
     </g>
     <g id="text_3">
      <!-- −2 -->
      <defs>
       <path d="
M50.3438 8.45312
L50.3438 0
L3.03125 0
Q2.9375 3.17188 4.04688 6.10938
Q5.85938 10.9375 9.82812 15.625
Q13.8125 20.3125 21.3438 26.4688
Q33.0156 36.0312 37.1094 41.625
Q41.2188 47.2188 41.2188 52.2031
Q41.2188 57.4219 37.4688 61
Q33.7344 64.5938 27.7344 64.5938
Q21.3906 64.5938 17.5781 60.7812
Q13.7656 56.9844 13.7188 50.25
L4.6875 51.1719
Q5.60938 61.2812 11.6562 66.5781
Q17.7188 71.875 27.9375 71.875
Q38.2344 71.875 44.2344 66.1562
Q50.25 60.4531 50.25 52
Q50.25 47.7031 48.4844 43.5469
Q46.7344 39.4062 42.6562 34.8125
Q38.5781 30.2188 29.1094 22.2188
Q21.1875 15.5781 18.9375 13.2031
Q16.7031 10.8438 15.2344 8.45312
z
" id="ArialMT-32"/>
      </defs>
      <g style="fill:#d9d9d9;" transform="translate(136.67578125 338.695703125)scale(0.15 -0.15)">
       <use xlink:href="#ArialMT-2212"/>
       <use x="58.3984375" xlink:href="#ArialMT-32"/>
      </g>
     </g>
    </g>
    <g id="xtick_4">
     <g id="line2d_10">
      <path clip-path="url(#pfb770fbfc1)" d="
M194.015 320.959
L194.015 14.059" style="fill:none;stroke:#808080;stroke-linecap:round;"/>
     </g>
     <g id="line2d_11">
      <g>
       <use style="fill:#d9d9d9;stroke:#d9d9d9;" x="194.01484375" xlink:href="#m4380da9e33" y="320.958984375"/>
      </g>
     </g>
     <g id="line2d_12">
      <g>
       <use style="fill:#d9d9d9;stroke:#d9d9d9;" x="194.01484375" xlink:href="#m4380da9e33" y="14.058984375"/>
      </g>
     </g>
     <g id="text_4">
      <!-- −1 -->
      <defs>
       <path d="
M37.25 0
L28.4688 0
L28.4688 56
Q25.2969 52.9844 20.1406 49.9531
Q14.9844 46.9219 10.8906 45.4062
L10.8906 53.9062
Q18.2656 57.375 23.7812 62.2969
Q29.2969 67.2344 31.5938 71.875
L37.25 71.875
z
" id="ArialMT-31"/>
      </defs>
      <g style="fill:#d9d9d9;" transform="translate(187.2578125 338.695703125)scale(0.15 -0.15)">
       <use xlink:href="#ArialMT-2212"/>
       <use x="58.3984375" xlink:href="#ArialMT-31"/>
      </g>
     </g>
    </g>
    <g id="xtick_5">
     <g id="line2d_13">
      <path clip-path="url(#pfb770fbfc1)" d="
M243.615 320.959
L243.615 14.059" style="fill:none;stroke:#808080;stroke-linecap:round;"/>
     </g>
     <g id="line2d_14">
      <g>
       <use style="fill:#d9d9d9;stroke:#d9d9d9;" x="243.61484375" xlink:href="#m4380da9e33" y="320.958984375"/>
      </g>
     </g>
     <g id="line2d_15">
      <g>
       <use style="fill:#d9d9d9;stroke:#d9d9d9;" x="243.61484375" xlink:href="#m4380da9e33" y="14.058984375"/>
      </g>
     </g>
     <g id="text_5">
      <!-- 0 -->
      <defs>
       <path d="
M4.15625 35.2969
Q4.15625 48 6.76562 55.7344
Q9.375 63.4844 14.5156 67.6719
Q19.6719 71.875 27.4844 71.875
Q33.25 71.875 37.5938 69.5469
Q41.9375 67.2344 44.7656 62.8594
Q47.6094 58.5 49.2188 52.2188
Q50.8281 45.9531 50.8281 35.2969
Q50.8281 22.7031 48.2344 14.9688
Q45.6562 7.23438 40.5 3
Q35.3594 -1.21875 27.4844 -1.21875
Q17.1406 -1.21875 11.2344 6.20312
Q4.15625 15.1406 4.15625 35.2969
M13.1875 35.2969
Q13.1875 17.6719 17.3125 11.8281
Q21.4375 6 27.4844 6
Q33.5469 6 37.6719 11.8594
Q41.7969 17.7188 41.7969 35.2969
Q41.7969 52.9844 37.6719 58.7812
Q33.5469 64.5938 27.3906 64.5938
Q21.3438 64.5938 17.7188 59.4688
Q13.1875 52.9375 13.1875 35.2969" id="ArialMT-30"/>
      </defs>
      <g style="fill:#d9d9d9;" transform="translate(240.114453125 338.695703125)scale(0.15 -0.15)">
       <use xlink:href="#ArialMT-30"/>
      </g>
     </g>
    </g>
    <g id="xtick_6">
     <g id="line2d_16">
      <path clip-path="url(#pfb770fbfc1)" d="
M293.215 320.959
L293.215 14.059" style="fill:none;stroke:#808080;stroke-linecap:round;"/>
     </g>
     <g id="line2d_17">
      <g>
       <use style="fill:#d9d9d9;stroke:#d9d9d9;" x="293.21484375" xlink:href="#m4380da9e33" y="320.958984375"/>
      </g>
     </g>
     <g id="line2d_18">
      <g>
       <use style="fill:#d9d9d9;stroke:#d9d9d9;" x="293.21484375" xlink:href="#m4380da9e33" y="14.058984375"/>
      </g>
     </g>
     <g id="text_6">
      <!-- 1 -->
      <g style="fill:#d9d9d9;" transform="translate(291.237890625 338.695703125)scale(0.15 -0.15)">
       <use xlink:href="#ArialMT-31"/>
      </g>
     </g>
    </g>
    <g id="xtick_7">
     <g id="line2d_19">
      <path clip-path="url(#pfb770fbfc1)" d="
M342.815 320.959
L342.815 14.059" style="fill:none;stroke:#808080;stroke-linecap:round;"/>
     </g>
     <g id="line2d_20">
      <g>
       <use style="fill:#d9d9d9;stroke:#d9d9d9;" x="342.81484375" xlink:href="#m4380da9e33" y="320.958984375"/>
      </g>
     </g>
     <g id="line2d_21">
      <g>
       <use style="fill:#d9d9d9;stroke:#d9d9d9;" x="342.81484375" xlink:href="#m4380da9e33" y="14.058984375"/>
      </g>
     </g>
     <g id="text_7">
      <!-- 2 -->
      <g style="fill:#d9d9d9;" transform="translate(339.259375 338.695703125)scale(0.15 -0.15)">
       <use xlink:href="#ArialMT-32"/>
      </g>
     </g>
    </g>
    <g id="xtick_8">
     <g id="line2d_22">
      <path clip-path="url(#pfb770fbfc1)" d="
M392.415 320.959
L392.415 14.059" style="fill:none;stroke:#808080;stroke-linecap:round;"/>
     </g>
     <g id="line2d_23">
      <g>
       <use style="fill:#d9d9d9;stroke:#d9d9d9;" x="392.41484375" xlink:href="#m4380da9e33" y="320.958984375"/>
      </g>
     </g>
     <g id="line2d_24">
      <g>
       <use style="fill:#d9d9d9;stroke:#d9d9d9;" x="392.41484375" xlink:href="#m4380da9e33" y="14.058984375"/>
      </g>
     </g>
     <g id="text_8">
      <!-- 3 -->
      <g style="fill:#d9d9d9;" transform="translate(388.89921875 338.695703125)scale(0.15 -0.15)">
       <use xlink:href="#ArialMT-33"/>
      </g>
     </g>
    </g>
    <g id="xtick_9">
     <g id="line2d_25">
      <path clip-path="url(#pfb770fbfc1)" d="
M442.015 320.959
L442.015 14.059" style="fill:none;stroke:#808080;stroke-linecap:round;"/>
     </g>
     <g id="line2d_26">
      <g>
       <use style="fill:#d9d9d9;stroke:#d9d9d9;" x="442.01484375" xlink:href="#m4380da9e33" y="320.958984375"/>
      </g>
     </g>
     <g id="line2d_27">
      <g>
       <use style="fill:#d9d9d9;stroke:#d9d9d9;" x="442.01484375" xlink:href="#m4380da9e33" y="14.058984375"/>
      </g>
     </g>
     <g id="text_9">
      <!-- 4 -->
      <g style="fill:#d9d9d9;" transform="translate(438.301171875 338.695703125)scale(0.15 -0.15)">
       <use xlink:href="#ArialMT-34"/>
      </g>
     </g>
    </g>
    <g id="xtick_10">
     <g id="line2d_28">
      <path clip-path="url(#pfb770fbfc1)" d="
M491.615 320.959
L491.615 14.059" style="fill:none;stroke:#808080;stroke-linecap:round;"/>
     </g>
     <g id="line2d_29">
      <g>
       <use style="fill:#d9d9d9;stroke:#d9d9d9;" x="491.61484375" xlink:href="#m4380da9e33" y="320.958984375"/>
      </g>
     </g>
     <g id="line2d_30">
      <g>
       <use style="fill:#d9d9d9;stroke:#d9d9d9;" x="491.61484375" xlink:href="#m4380da9e33" y="14.058984375"/>
      </g>
     </g>
     <g id="text_10">
      <!-- 5 -->
      <defs>
       <path d="
M4.15625 18.75
L13.375 19.5312
Q14.4062 12.7969 18.1406 9.39062
Q21.875 6 27.1562 6
Q33.5 6 37.8906 10.7812
Q42.2812 15.5781 42.2812 23.4844
Q42.2812 31 38.0625 35.3438
Q33.8438 39.7031 27 39.7031
Q22.75 39.7031 19.3281 37.7656
Q15.9219 35.8438 13.9688 32.7656
L5.71875 33.8438
L12.6406 70.6094
L48.25 70.6094
L48.25 62.2031
L19.6719 62.2031
L15.8281 42.9688
Q22.2656 47.4688 29.3438 47.4688
Q38.7188 47.4688 45.1562 40.9688
Q51.6094 34.4688 51.6094 24.2656
Q51.6094 14.5469 45.9531 7.46875
Q39.0625 -1.21875 27.1562 -1.21875
Q17.3906 -1.21875 11.2031 4.25
Q5.03125 9.71875 4.15625 18.75" id="ArialMT-35"/>
      </defs>
      <g style="fill:#d9d9d9;" transform="translate(488.055859375 338.695703125)scale(0.15 -0.15)">
       <use xlink:href="#ArialMT-35"/>
      </g>
     </g>
    </g>
   </g>
   <g id="matplotlib.axis_2">
    <g id="ytick_1">
     <g id="line2d_31">
      <path clip-path="url(#pfb770fbfc1)" d="
M45.2148 320.959
L491.615 320.959" style="fill:none;stroke:#808080;stroke-linecap:round;"/>
     </g>
     <g id="line2d_32">
      <g>
       <use style="fill:#d9d9d9;stroke:#d9d9d9;" x="45.21484375" xlink:href="#m4380da9e33" y="320.958984375"/>
      </g>
     </g>
     <g id="line2d_33">
      <g>
       <use style="fill:#d9d9d9;stroke:#d9d9d9;" x="491.61484375" xlink:href="#m4380da9e33" y="320.958984375"/>
      </g>
     </g>
     <g id="text_11">
      <!-- 0 -->
      <g style="fill:#d9d9d9;" transform="translate(31.2140625 324.83671875)scale(0.15 -0.15)">
       <use xlink:href="#ArialMT-30"/>
      </g>
     </g>
    </g>
    <g id="ytick_2">
     <g id="line2d_34">
      <path clip-path="url(#pfb770fbfc1)" d="
M45.2148 282.596
L491.615 282.596" style="fill:none;stroke:#808080;stroke-linecap:round;"/>
     </g>
     <g id="line2d_35">
      <g>
       <use style="fill:#d9d9d9;stroke:#d9d9d9;" x="45.21484375" xlink:href="#m4380da9e33" y="282.596484375"/>
      </g>
     </g>
     <g id="line2d_36">
      <g>
       <use style="fill:#d9d9d9;stroke:#d9d9d9;" x="491.61484375" xlink:href="#m4380da9e33" y="282.596484375"/>
      </g>
     </g>
     <g id="text_12">
      <!-- 200 -->
      <g style="fill:#d9d9d9;" transform="translate(14.3484375 286.47421875)scale(0.15 -0.15)">
       <use xlink:href="#ArialMT-32"/>
       <use x="55.615234375" xlink:href="#ArialMT-30"/>
       <use x="111.23046875" xlink:href="#ArialMT-30"/>
      </g>
     </g>
    </g>
    <g id="ytick_3">
     <g id="line2d_37">
      <path clip-path="url(#pfb770fbfc1)" d="
M45.2148 244.234
L491.615 244.234" style="fill:none;stroke:#808080;stroke-linecap:round;"/>
     </g>
     <g id="line2d_38">
      <g>
       <use style="fill:#d9d9d9;stroke:#d9d9d9;" x="45.21484375" xlink:href="#m4380da9e33" y="244.233984375"/>
      </g>
     </g>
     <g id="line2d_39">
      <g>
       <use style="fill:#d9d9d9;stroke:#d9d9d9;" x="491.61484375" xlink:href="#m4380da9e33" y="244.233984375"/>
      </g>
     </g>
     <g id="text_13">
      <!-- 400 -->
      <g style="fill:#d9d9d9;" transform="translate(14.09765625 248.11171875)scale(0.15 -0.15)">
       <use xlink:href="#ArialMT-34"/>
       <use x="55.615234375" xlink:href="#ArialMT-30"/>
       <use x="111.23046875" xlink:href="#ArialMT-30"/>
      </g>
     </g>
    </g>
    <g id="ytick_4">
     <g id="line2d_40">
      <path clip-path="url(#pfb770fbfc1)" d="
M45.2148 205.871
L491.615 205.871" style="fill:none;stroke:#808080;stroke-linecap:round;"/>
     </g>
     <g id="line2d_41">
      <g>
       <use style="fill:#d9d9d9;stroke:#d9d9d9;" x="45.21484375" xlink:href="#m4380da9e33" y="205.871484375"/>
      </g>
     </g>
     <g id="line2d_42">
      <g>
       <use style="fill:#d9d9d9;stroke:#d9d9d9;" x="491.61484375" xlink:href="#m4380da9e33" y="205.871484375"/>
      </g>
     </g>
     <g id="text_14">
      <!-- 600 -->
      <defs>
       <path d="
M49.75 54.0469
L41.0156 53.375
Q39.8438 58.5469 37.7031 60.8906
Q34.125 64.6562 28.9062 64.6562
Q24.7031 64.6562 21.5312 62.3125
Q17.3906 59.2812 14.9844 53.4688
Q12.5938 47.6562 12.5 36.9219
Q15.6719 41.75 20.2656 44.0938
Q24.8594 46.4375 29.8906 46.4375
Q38.6719 46.4375 44.8438 39.9688
Q51.0312 33.5 51.0312 23.25
Q51.0312 16.5 48.125 10.7188
Q45.2188 4.9375 40.1406 1.85938
Q35.0625 -1.21875 28.6094 -1.21875
Q17.625 -1.21875 10.6875 6.85938
Q3.76562 14.9375 3.76562 33.5
Q3.76562 54.25 11.4219 63.6719
Q18.1094 71.875 29.4375 71.875
Q37.8906 71.875 43.2812 67.1406
Q48.6875 62.4062 49.75 54.0469
M13.875 23.1875
Q13.875 18.6562 15.7969 14.5
Q17.7188 10.3594 21.1875 8.17188
Q24.6562 6 28.4688 6
Q34.0312 6 38.0312 10.4844
Q42.0469 14.9844 42.0469 22.7031
Q42.0469 30.125 38.0781 34.3906
Q34.125 38.6719 28.125 38.6719
Q22.1719 38.6719 18.0156 34.3906
Q13.875 30.125 13.875 23.1875" id="ArialMT-36"/>
      </defs>
      <g style="fill:#d9d9d9;" transform="translate(14.47265625 209.74921875)scale(0.15 -0.15)">
       <use xlink:href="#ArialMT-36"/>
       <use x="55.615234375" xlink:href="#ArialMT-30"/>
       <use x="111.23046875" xlink:href="#ArialMT-30"/>
      </g>
     </g>
    </g>
    <g id="ytick_5">
     <g id="line2d_43">
      <path clip-path="url(#pfb770fbfc1)" d="
M45.2148 167.509
L491.615 167.509" style="fill:none;stroke:#808080;stroke-linecap:round;"/>
     </g>
     <g id="line2d_44">
      <g>
       <use style="fill:#d9d9d9;stroke:#d9d9d9;" x="45.21484375" xlink:href="#m4380da9e33" y="167.508984375"/>
      </g>
     </g>
     <g id="line2d_45">
      <g>
       <use style="fill:#d9d9d9;stroke:#d9d9d9;" x="491.61484375" xlink:href="#m4380da9e33" y="167.508984375"/>
      </g>
     </g>
     <g id="text_15">
      <!-- 800 -->
      <defs>
       <path d="
M17.6719 38.8125
Q12.2031 40.8281 9.5625 44.5312
Q6.9375 48.25 6.9375 53.4219
Q6.9375 61.2344 12.5469 66.5469
Q18.1719 71.875 27.4844 71.875
Q36.8594 71.875 42.5781 66.4219
Q48.2969 60.9844 48.2969 53.1719
Q48.2969 48.1875 45.6719 44.5
Q43.0625 40.8281 37.75 38.8125
Q44.3438 36.6719 47.7812 31.875
Q51.2188 27.0938 51.2188 20.4531
Q51.2188 11.2812 44.7188 5.03125
Q38.2344 -1.21875 27.6406 -1.21875
Q17.0469 -1.21875 10.5469 5.04688
Q4.04688 11.3281 4.04688 20.7031
Q4.04688 27.6875 7.59375 32.3906
Q11.1406 37.1094 17.6719 38.8125
M15.9219 53.7188
Q15.9219 48.6406 19.1875 45.4062
Q22.4688 42.1875 27.6875 42.1875
Q32.7656 42.1875 36.0156 45.375
Q39.2656 48.5781 39.2656 53.2188
Q39.2656 58.0625 35.9062 61.3594
Q32.5625 64.6562 27.5938 64.6562
Q22.5625 64.6562 19.2344 61.4219
Q15.9219 58.2031 15.9219 53.7188
M13.0938 20.6562
Q13.0938 16.8906 14.875 13.375
Q16.6562 9.85938 20.1719 7.92188
Q23.6875 6 27.7344 6
Q34.0312 6 38.125 10.0469
Q42.2344 14.1094 42.2344 20.3594
Q42.2344 26.7031 38.0156 30.8594
Q33.7969 35.0156 27.4375 35.0156
Q21.2344 35.0156 17.1562 30.9062
Q13.0938 26.8125 13.0938 20.6562" id="ArialMT-38"/>
      </defs>
      <g style="fill:#d9d9d9;" transform="translate(14.51484375 171.38671875)scale(0.15 -0.15)">
       <use xlink:href="#ArialMT-38"/>
       <use x="55.615234375" xlink:href="#ArialMT-30"/>
       <use x="111.23046875" xlink:href="#ArialMT-30"/>
      </g>
     </g>
    </g>
    <g id="ytick_6">
     <g id="line2d_46">
      <path clip-path="url(#pfb770fbfc1)" d="
M45.2148 129.146
L491.615 129.146" style="fill:none;stroke:#808080;stroke-linecap:round;"/>
     </g>
     <g id="line2d_47">
      <g>
       <use style="fill:#d9d9d9;stroke:#d9d9d9;" x="45.21484375" xlink:href="#m4380da9e33" y="129.146484375"/>
      </g>
     </g>
     <g id="line2d_48">
      <g>
       <use style="fill:#d9d9d9;stroke:#d9d9d9;" x="491.61484375" xlink:href="#m4380da9e33" y="129.146484375"/>
      </g>
     </g>
     <g id="text_16">
      <!-- 1000 -->
      <g style="fill:#d9d9d9;" transform="translate(7.2 133.02421875)scale(0.15 -0.15)">
       <use xlink:href="#ArialMT-31"/>
       <use x="55.615234375" xlink:href="#ArialMT-30"/>
       <use x="111.23046875" xlink:href="#ArialMT-30"/>
       <use x="166.845703125" xlink:href="#ArialMT-30"/>
      </g>
     </g>
    </g>
    <g id="ytick_7">
     <g id="line2d_49">
      <path clip-path="url(#pfb770fbfc1)" d="
M45.2148 90.784
L491.615 90.784" style="fill:none;stroke:#808080;stroke-linecap:round;"/>
     </g>
     <g id="line2d_50">
      <g>
       <use style="fill:#d9d9d9;stroke:#d9d9d9;" x="45.21484375" xlink:href="#m4380da9e33" y="90.783984375"/>
      </g>
     </g>
     <g id="line2d_51">
      <g>
       <use style="fill:#d9d9d9;stroke:#d9d9d9;" x="491.61484375" xlink:href="#m4380da9e33" y="90.783984375"/>
      </g>
     </g>
     <g id="text_17">
      <!-- 1200 -->
      <g style="fill:#d9d9d9;" transform="translate(7.2 94.66171875)scale(0.15 -0.15)">
       <use xlink:href="#ArialMT-31"/>
       <use x="55.615234375" xlink:href="#ArialMT-32"/>
       <use x="111.23046875" xlink:href="#ArialMT-30"/>
       <use x="166.845703125" xlink:href="#ArialMT-30"/>
      </g>
     </g>
    </g>
    <g id="ytick_8">
     <g id="line2d_52">
      <path clip-path="url(#pfb770fbfc1)" d="
M45.2148 52.4215
L491.615 52.4215" style="fill:none;stroke:#808080;stroke-linecap:round;"/>
     </g>
     <g id="line2d_53">
      <g>
       <use style="fill:#d9d9d9;stroke:#d9d9d9;" x="45.21484375" xlink:href="#m4380da9e33" y="52.421484375"/>
      </g>
     </g>
     <g id="line2d_54">
      <g>
       <use style="fill:#d9d9d9;stroke:#d9d9d9;" x="491.61484375" xlink:href="#m4380da9e33" y="52.421484375"/>
      </g>
     </g>
     <g id="text_18">
      <!-- 1400 -->
      <g style="fill:#d9d9d9;" transform="translate(7.2 56.29921875)scale(0.15 -0.15)">
       <use xlink:href="#ArialMT-31"/>
       <use x="55.615234375" xlink:href="#ArialMT-34"/>
       <use x="111.23046875" xlink:href="#ArialMT-30"/>
       <use x="166.845703125" xlink:href="#ArialMT-30"/>
      </g>
     </g>
    </g>
    <g id="ytick_9">
     <g id="line2d_55">
      <path clip-path="url(#pfb770fbfc1)" d="
M45.2148 14.059
L491.615 14.059" style="fill:none;stroke:#808080;stroke-linecap:round;"/>
     </g>
     <g id="line2d_56">
      <g>
       <use style="fill:#d9d9d9;stroke:#d9d9d9;" x="45.21484375" xlink:href="#m4380da9e33" y="14.058984375"/>
      </g>
     </g>
     <g id="line2d_57">
      <g>
       <use style="fill:#d9d9d9;stroke:#d9d9d9;" x="491.61484375" xlink:href="#m4380da9e33" y="14.058984375"/>
      </g>
     </g>
     <g id="text_19">
      <!-- 1600 -->
      <g style="fill:#d9d9d9;" transform="translate(7.2 17.93671875)scale(0.15 -0.15)">
       <use xlink:href="#ArialMT-31"/>
       <use x="55.615234375" xlink:href="#ArialMT-36"/>
       <use x="111.23046875" xlink:href="#ArialMT-30"/>
       <use x="166.845703125" xlink:href="#ArialMT-30"/>
      </g>
     </g>
    </g>
   </g>
   <g id="patch_3">
    <path clip-path="url(#pfb770fbfc1)" d="
M50.2145 320.959
L58.875 320.959
L58.875 320.767
L50.2145 320.767
z
" style="fill:#003fff;stroke:#ffffff;stroke-linejoin:miter;stroke-width:0.3;"/>
   </g>
   <g id="patch_4">
    <path clip-path="url(#pfb770fbfc1)" d="
M58.875 320.959
L67.5355 320.959
L67.5355 320.767
L58.875 320.767
z
" style="fill:#003fff;stroke:#ffffff;stroke-linejoin:miter;stroke-width:0.3;"/>
   </g>
   <g id="patch_5">
    <path clip-path="url(#pfb770fbfc1)" d="
M67.5355 320.959
L76.1961 320.959
L76.1961 320
L67.5355 320
z
" style="fill:#003fff;stroke:#ffffff;stroke-linejoin:miter;stroke-width:0.3;"/>
   </g>
   <g id="patch_6">
    <path clip-path="url(#pfb770fbfc1)" d="
M76.1961 320.959
L84.8566 320.959
L84.8566 319.808
L76.1961 319.808
z
" style="fill:#003fff;stroke:#ffffff;stroke-linejoin:miter;stroke-width:0.3;"/>
   </g>
   <g id="patch_7">
    <path clip-path="url(#pfb770fbfc1)" d="
M84.8566 320.959
L93.5171 320.959
L93.5171 318.274
L84.8566 318.274
z
" style="fill:#003fff;stroke:#ffffff;stroke-linejoin:miter;stroke-width:0.3;"/>
   </g>
   <g id="patch_8">
    <path clip-path="url(#pfb770fbfc1)" d="
M93.5171 320.959
L102.178 320.959
L102.178 318.849
L93.5171 318.849
z
" style="fill:#003fff;stroke:#ffffff;stroke-linejoin:miter;stroke-width:0.3;"/>
   </g>
   <g id="patch_9">
    <path clip-path="url(#pfb770fbfc1)" d="
M102.178 320.959
L110.838 320.959
L110.838 315.396
L102.178 315.396
z
" style="fill:#003fff;stroke:#ffffff;stroke-linejoin:miter;stroke-width:0.3;"/>
   </g>
   <g id="patch_10">
    <path clip-path="url(#pfb770fbfc1)" d="
M110.838 320.959
L119.499 320.959
L119.499 311.177
L110.838 311.177
z
" style="fill:#003fff;stroke:#ffffff;stroke-linejoin:miter;stroke-width:0.3;"/>
   </g>
   <g id="patch_11">
    <path clip-path="url(#pfb770fbfc1)" d="
M119.499 320.959
L128.159 320.959
L128.159 306.957
L119.499 306.957
z
" style="fill:#003fff;stroke:#ffffff;stroke-linejoin:miter;stroke-width:0.3;"/>
   </g>
   <g id="patch_12">
    <path clip-path="url(#pfb770fbfc1)" d="
M128.159 320.959
L136.82 320.959
L136.82 300.627
L128.159 300.627
z
" style="fill:#003fff;stroke:#ffffff;stroke-linejoin:miter;stroke-width:0.3;"/>
   </g>
   <g id="patch_13">
    <path clip-path="url(#pfb770fbfc1)" d="
M136.82 320.959
L145.48 320.959
L145.48 286.241
L136.82 286.241
z
" style="fill:#003fff;stroke:#ffffff;stroke-linejoin:miter;stroke-width:0.3;"/>
   </g>
   <g id="patch_14">
    <path clip-path="url(#pfb770fbfc1)" d="
M145.48 320.959
L154.141 320.959
L154.141 275.883
L145.48 275.883
z
" style="fill:#003fff;stroke:#ffffff;stroke-linejoin:miter;stroke-width:0.3;"/>
   </g>
   <g id="patch_15">
    <path clip-path="url(#pfb770fbfc1)" d="
M154.141 320.959
L162.801 320.959
L162.801 255.935
L154.141 255.935
z
" style="fill:#003fff;stroke:#ffffff;stroke-linejoin:miter;stroke-width:0.3;"/>
   </g>
   <g id="patch_16">
    <path clip-path="url(#pfb770fbfc1)" d="
M162.801 320.959
L171.462 320.959
L171.462 241.549
L162.801 241.549
z
" style="fill:#003fff;stroke:#ffffff;stroke-linejoin:miter;stroke-width:0.3;"/>
   </g>
   <g id="patch_17">
    <path clip-path="url(#pfb770fbfc1)" d="
M171.462 320.959
L180.122 320.959
L180.122 222.367
L171.462 222.367
z
" style="fill:#003fff;stroke:#ffffff;stroke-linejoin:miter;stroke-width:0.3;"/>
   </g>
   <g id="patch_18">
    <path clip-path="url(#pfb770fbfc1)" d="
M180.122 320.959
L188.783 320.959
L188.783 194.746
L180.122 194.746
z
" style="fill:#003fff;stroke:#ffffff;stroke-linejoin:miter;stroke-width:0.3;"/>
   </g>
   <g id="patch_19">
    <path clip-path="url(#pfb770fbfc1)" d="
M188.783 320.959
L197.443 320.959
L197.443 159.453
L188.783 159.453
z
" style="fill:#003fff;stroke:#ffffff;stroke-linejoin:miter;stroke-width:0.3;"/>
   </g>
   <g id="patch_20">
    <path clip-path="url(#pfb770fbfc1)" d="
M197.443 320.959
L206.104 320.959
L206.104 123.776
L197.443 123.776
z
" style="fill:#003fff;stroke:#ffffff;stroke-linejoin:miter;stroke-width:0.3;"/>
   </g>
   <g id="patch_21">
    <path clip-path="url(#pfb770fbfc1)" d="
M206.104 320.959
L214.764 320.959
L214.764 114.569
L206.104 114.569
z
" style="fill:#003fff;stroke:#ffffff;stroke-linejoin:miter;stroke-width:0.3;"/>
   </g>
   <g id="patch_22">
    <path clip-path="url(#pfb770fbfc1)" d="
M214.764 320.959
L223.425 320.959
L223.425 86.7559
L214.764 86.7559
z
" style="fill:#003fff;stroke:#ffffff;stroke-linejoin:miter;stroke-width:0.3;"/>
   </g>
   <g id="patch_23">
    <path clip-path="url(#pfb770fbfc1)" d="
M223.425 320.959
L232.085 320.959
L232.085 67.5747
L223.425 67.5747
z
" style="fill:#003fff;stroke:#ffffff;stroke-linejoin:miter;stroke-width:0.3;"/>
   </g>
   <g id="patch_24">
    <path clip-path="url(#pfb770fbfc1)" d="
M232.085 320.959
L240.746 320.959
L240.746 46.6671
L232.085 46.6671
z
" style="fill:#003fff;stroke:#ffffff;stroke-linejoin:miter;stroke-width:0.3;"/>
   </g>
   <g id="patch_25">
    <path clip-path="url(#pfb770fbfc1)" d="
M240.746 320.959
L249.407 320.959
L249.407 44.1735
L240.746 44.1735
z
" style="fill:#003fff;stroke:#ffffff;stroke-linejoin:miter;stroke-width:0.3;"/>
   </g>
   <g id="patch_26">
    <path clip-path="url(#pfb770fbfc1)" d="
M249.407 320.959
L258.067 320.959
L258.067 65.2729
L249.407 65.2729
z
" style="fill:#003fff;stroke:#ffffff;stroke-linejoin:miter;stroke-width:0.3;"/>
   </g>
   <g id="patch_27">
    <path clip-path="url(#pfb770fbfc1)" d="
M258.067 320.959
L266.728 320.959
L266.728 73.1372
L258.067 73.1372
z
" style="fill:#003fff;stroke:#ffffff;stroke-linejoin:miter;stroke-width:0.3;"/>
   </g>
   <g id="patch_28">
    <path clip-path="url(#pfb770fbfc1)" d="
M266.728 320.959
L275.388 320.959
L275.388 89.4413
L266.728 89.4413
z
" style="fill:#003fff;stroke:#ffffff;stroke-linejoin:miter;stroke-width:0.3;"/>
   </g>
   <g id="patch_29">
    <path clip-path="url(#pfb770fbfc1)" d="
M275.388 320.959
L284.049 320.959
L284.049 118.597
L275.388 118.597
z
" style="fill:#003fff;stroke:#ffffff;stroke-linejoin:miter;stroke-width:0.3;"/>
   </g>
   <g id="patch_30">
    <path clip-path="url(#pfb770fbfc1)" d="
M284.049 320.959
L292.709 320.959
L292.709 142.573
L284.049 142.573
z
" style="fill:#003fff;stroke:#ffffff;stroke-linejoin:miter;stroke-width:0.3;"/>
   </g>
   <g id="patch_31">
    <path clip-path="url(#pfb770fbfc1)" d="
M292.709 320.959
L301.37 320.959
L301.37 168.66
L292.709 168.66
z
" style="fill:#003fff;stroke:#ffffff;stroke-linejoin:miter;stroke-width:0.3;"/>
   </g>
   <g id="patch_32">
    <path clip-path="url(#pfb770fbfc1)" d="
M301.37 320.959
L310.03 320.959
L310.03 202.419
L301.37 202.419
z
" style="fill:#003fff;stroke:#ffffff;stroke-linejoin:miter;stroke-width:0.3;"/>
   </g>
   <g id="patch_33">
    <path clip-path="url(#pfb770fbfc1)" d="
M310.03 320.959
L318.691 320.959
L318.691 221.216
L310.03 221.216
z
" style="fill:#003fff;stroke:#ffffff;stroke-linejoin:miter;stroke-width:0.3;"/>
   </g>
   <g id="patch_34">
    <path clip-path="url(#pfb770fbfc1)" d="
M318.691 320.959
L327.351 320.959
L327.351 245.385
L318.691 245.385
z
" style="fill:#003fff;stroke:#ffffff;stroke-linejoin:miter;stroke-width:0.3;"/>
   </g>
   <g id="patch_35">
    <path clip-path="url(#pfb770fbfc1)" d="
M327.351 320.959
L336.012 320.959
L336.012 270.32
L327.351 270.32
z
" style="fill:#003fff;stroke:#ffffff;stroke-linejoin:miter;stroke-width:0.3;"/>
   </g>
   <g id="patch_36">
    <path clip-path="url(#pfb770fbfc1)" d="
M336.012 320.959
L344.672 320.959
L344.672 282.021
L336.012 282.021
z
" style="fill:#003fff;stroke:#ffffff;stroke-linejoin:miter;stroke-width:0.3;"/>
   </g>
   <g id="patch_37">
    <path clip-path="url(#pfb770fbfc1)" d="
M344.672 320.959
L353.333 320.959
L353.333 295.064
L344.672 295.064
z
" style="fill:#003fff;stroke:#ffffff;stroke-linejoin:miter;stroke-width:0.3;"/>
   </g>
   <g id="patch_38">
    <path clip-path="url(#pfb770fbfc1)" d="
M353.333 320.959
L361.993 320.959
L361.993 303.12
L353.333 303.12
z
" style="fill:#003fff;stroke:#ffffff;stroke-linejoin:miter;stroke-width:0.3;"/>
   </g>
   <g id="patch_39">
    <path clip-path="url(#pfb770fbfc1)" d="
M361.993 320.959
L370.654 320.959
L370.654 310.026
L361.993 310.026
z
" style="fill:#003fff;stroke:#ffffff;stroke-linejoin:miter;stroke-width:0.3;"/>
   </g>
   <g id="patch_40">
    <path clip-path="url(#pfb770fbfc1)" d="
M370.654 320.959
L379.314 320.959
L379.314 312.711
L370.654 312.711
z
" style="fill:#003fff;stroke:#ffffff;stroke-linejoin:miter;stroke-width:0.3;"/>
   </g>
   <g id="patch_41">
    <path clip-path="url(#pfb770fbfc1)" d="
M379.314 320.959
L387.975 320.959
L387.975 316.547
L379.314 316.547
z
" style="fill:#003fff;stroke:#ffffff;stroke-linejoin:miter;stroke-width:0.3;"/>
   </g>
   <g id="patch_42">
    <path clip-path="url(#pfb770fbfc1)" d="
M387.975 320.959
L396.635 320.959
L396.635 317.315
L387.975 317.315
z
" style="fill:#003fff;stroke:#ffffff;stroke-linejoin:miter;stroke-width:0.3;"/>
   </g>
   <g id="patch_43">
    <path clip-path="url(#pfb770fbfc1)" d="
M396.635 320.959
L405.296 320.959
L405.296 318.657
L396.635 318.657
z
" style="fill:#003fff;stroke:#ffffff;stroke-linejoin:miter;stroke-width:0.3;"/>
   </g>
   <g id="patch_44">
    <path clip-path="url(#pfb770fbfc1)" d="
M405.296 320.959
L413.956 320.959
L413.956 320.192
L405.296 320.192
z
" style="fill:#003fff;stroke:#ffffff;stroke-linejoin:miter;stroke-width:0.3;"/>
   </g>
   <g id="patch_45">
    <path clip-path="url(#pfb770fbfc1)" d="
M413.956 320.959
L422.617 320.959
L422.617 320.575
L413.956 320.575
z
" style="fill:#003fff;stroke:#ffffff;stroke-linejoin:miter;stroke-width:0.3;"/>
   </g>
   <g id="patch_46">
    <path clip-path="url(#pfb770fbfc1)" d="
M422.617 320.959
L431.278 320.959
L431.278 320.767
L422.617 320.767
z
" style="fill:#003fff;stroke:#ffffff;stroke-linejoin:miter;stroke-width:0.3;"/>
   </g>
   <g id="patch_47">
    <path clip-path="url(#pfb770fbfc1)" d="
M431.278 320.959
L439.938 320.959
L439.938 320.959
L431.278 320.959
z
" style="fill:#003fff;stroke:#ffffff;stroke-linejoin:miter;stroke-width:0.3;"/>
   </g>
   <g id="patch_48">
    <path clip-path="url(#pfb770fbfc1)" d="
M439.938 320.959
L448.599 320.959
L448.599 320.767
L439.938 320.767
z
" style="fill:#003fff;stroke:#ffffff;stroke-linejoin:miter;stroke-width:0.3;"/>
   </g>
   <g id="patch_49">
    <path clip-path="url(#pfb770fbfc1)" d="
M448.599 320.959
L457.259 320.959
L457.259 320.959
L448.599 320.959
z
" style="fill:#003fff;stroke:#ffffff;stroke-linejoin:miter;stroke-width:0.3;"/>
   </g>
   <g id="patch_50">
    <path clip-path="url(#pfb770fbfc1)" d="
M457.259 320.959
L465.92 320.959
L465.92 320.959
L457.259 320.959
z
" style="fill:#003fff;stroke:#ffffff;stroke-linejoin:miter;stroke-width:0.3;"/>
   </g>
   <g id="patch_51">
    <path clip-path="url(#pfb770fbfc1)" d="
M465.92 320.959
L474.58 320.959
L474.58 320.959
L465.92 320.959
z
" style="fill:#003fff;stroke:#ffffff;stroke-linejoin:miter;stroke-width:0.3;"/>
   </g>
   <g id="patch_52">
    <path clip-path="url(#pfb770fbfc1)" d="
M474.58 320.959
L483.241 320.959
L483.241 320.767
L474.58 320.767
z
" style="fill:#003fff;stroke:#ffffff;stroke-linejoin:miter;stroke-width:0.3;"/>
   </g>
   <g id="patch_53">
    <path d="
M45.2148 14.059
L491.615 14.059" style="fill:none;"/>
   </g>
   <g id="patch_54">
    <path d="
M491.615 320.959
L491.615 14.059" style="fill:none;"/>
   </g>
   <g id="patch_55">
    <path d="
M45.2148 320.959
L491.615 320.959" style="fill:none;"/>
   </g>
   <g id="patch_56">
    <path d="
M45.2148 320.959
L45.2148 14.059" style="fill:none;"/>
   </g>
  </g>
 </g>
 <defs>
  <clipPath id="pfb770fbfc1">
   <rect height="306.9" width="446.4" x="45.21484375" y="14.058984375"/>
  </clipPath>
 </defs>
</svg>
